<?xml version="1.0" encoding="UTF-8" standalone="no" ?>
<!DOCTYPE svg PUBLIC "-//W3C//DTD SVG 1.1//EN" "http://www.w3.org/Graphics/SVG/1.1/DTD/svg11.dtd">
<svg xmlns="http://www.w3.org/2000/svg" xmlns:xlink="http://www.w3.org/1999/xlink" version="1.1" width="500" height="500" viewBox="0 0 500 500" xml:space="preserve">
<desc>Created with Fabric.js 5.3.0</desc>
<defs>
</defs>
<g transform="matrix(1 0 0 1 250.0000021233 249.5614056321)" id="PavgEbPPq6PaLisqzaAEk"  >
<path style="stroke: rgb(226,162,76); stroke-width: 0; stroke-dasharray: none; stroke-linecap: butt; stroke-dashoffset: 0; stroke-linejoin: miter; stroke-miterlimit: 4; fill: rgb(255,255,255); fill-rule: nonzero; opacity: 1;"  transform=" translate(-250, -250)" d="M 250 0 C 388 0 500 112 500 250 C 500 388 388 500 250 500 C 112 500 0 388 0 250 C 0 112 112 0 250 0 z M 10 250.4386 C 10 382.91859999999997 117.52 490.4386 250 490.4386 C 382.48 490.4386 490 382.9186 490 250.4386 C 490 117.95860000000002 382.48 10.438600000000008 250 10.438600000000008 C 117.52000000000001 10.438600000000008 10 117.9586 10 250.4386 z" stroke-linecap="round" />
</g>
</svg>